<?xml version="1.0" encoding="UTF-8" standalone="no"?>
<svg
   xmlns:dc="http://purl.org/dc/elements/1.1/"
   xmlns:cc="http://creativecommons.org/ns#"
   xmlns:rdf="http://www.w3.org/1999/02/22-rdf-syntax-ns#"
   xmlns:svg="http://www.w3.org/2000/svg"
   xmlns="http://www.w3.org/2000/svg"
   xmlns:sodipodi="http://sodipodi.sourceforge.net/DTD/sodipodi-0.dtd"
   xmlns:inkscape="http://www.inkscape.org/namespaces/inkscape"
   version="1.1"
   width="48"
   height="48"
   id="svg4136">
  <path
     d="M 16.322359,0 C 7.2803961,0 0,7.280415 0,16.322355 l 3.0133328,0 c 0,-3.172905 1.0803568,-6.05955 2.8905352,-8.330805 L 21.911539,24.00081 5.903868,40.00842 C 4.0941219,37.73763 3.0133328,34.85169 3.0133328,31.67919 L 0,31.67919 C 0,40.721115 7.2803961,48 16.322359,48 l 0,-3.01335 c -3.173023,0 -6.059565,-1.08069 -8.330808,-2.8905 L 23.99923,26.088465 40.008441,42.09615 c -2.270763,1.809345 -5.156693,2.8905 -8.329267,2.8905 l 0,3.01335 C 40.721145,48 48,40.721115 48,31.67919 l -3.013332,0 c 0,3.172575 -1.081191,6.05853 -2.890536,8.32923 L 26.08692,24.00081 42.096132,7.99155 c 1.809857,2.271255 2.890536,5.157825 2.890536,8.330805 l 3.013332,0 C 48,7.280415 40.721145,0 31.679173,0 l 0,3.013335 c 3.172505,0 6.058458,1.080795 8.329268,2.89053 L 23.99923,21.91308 7.991551,5.903865 c 2.271266,-1.810185 5.157935,-2.89053 8.330808,-2.89053 l 0,-3.013335 z"
     style="fill: #FFFFFF;" />
</svg>
